PathFileType	4	(X/Y/Z)	D:\TRACE\v60_Jaco2_6-2-23\v60_baseline_2-platform.trc
DataRate	CameraRate	NumFrames	NumMarkers	Units	OrigDataRate	OrigDataStartFrame	OrigNumFrames
100.00	100.00	      30	5	mm	100.00	6391	      7303
Frame#	Time	Left_Front			Right_Front			Left_Aft			Right_Aft			Post			
		X1	Y1	Z1	X2	Y2	Z2	X3	Y3	Z3	X4	Y4	Z4	X5	Y5	Z5	

6391	63.900	-800.61536	8.88213	-638.68494	769.37384	10.21250	-644.38861	-708.70966	8.05064	496.16650	733.42493	6.94273	505.84225	-14.19635	1308.22327	-961.85114	
6392	63.910	-800.67554	8.78349	-638.72192	769.31323	10.21932	-644.45007	-708.73553	8.01857	496.18866	733.44098	6.96612	505.86710	-14.21388	1308.23425	-961.70142	
6393	63.920	-800.64032	8.67978	-638.82611	769.35706	10.19187	-644.40515	-708.81232	8.03027	496.12207	733.38538	6.90882	505.85446	-14.13507	1308.12500	-961.49896	
6394	63.930	-800.56140	8.63365	-638.87683	769.33514	10.13084	-644.41406	-708.73059	8.01790	496.15176	733.33716	6.89960	505.89163	-14.13399	1308.08093	-961.41382	
6395	63.940	-800.56818	8.69865	-638.87659	769.32056	10.13187	-644.39795	-708.72455	8.00264	496.11975	733.36420	6.93338	505.90356	-14.02543	1308.13611	-961.44263	
6396	63.950	-800.63647	8.84920	-638.73334	769.26587	10.25899	-644.40796	-708.69720	8.02083	496.15854	733.40399	6.93441	505.88379	-14.11794	1308.15308	-961.54596	
6397	63.960	-800.69379	8.84740	-638.65485	769.33356	10.25838	-644.45264	-708.75134	8.02332	496.10605	733.44116	6.95887	505.85327	-14.25656	1308.23083	-961.78766	
6398	63.970	-800.67291	8.75327	-638.74902	769.31720	10.25459	-644.45996	-708.76971	7.98288	496.16064	733.40540	6.89775	505.89590	-14.15953	1308.23010	-961.87207	
6399	63.980	-800.61200	8.67772	-638.82013	769.26245	10.19487	-644.45569	-708.81219	7.95906	496.11032	733.37329	6.89030	505.89688	-14.07308	1308.19360	-961.86615	
6400	63.990	-800.56226	8.75177	-638.83752	769.29077	10.16737	-644.45239	-708.77893	8.02740	496.06891	733.07928	7.00051	506.03757	-14.17840	1308.16626	-961.86176	
6401	64.000	-800.52185	9.01308	-638.76538	769.30383	10.22790	-644.44806	-708.77069	8.07793	496.06464	733.42316	6.99609	505.85141	-14.15382	1308.21912	-961.85455	
6402	64.010	-800.58368	9.09048	-638.68781	769.32080	10.36527	-644.43201	-708.76440	8.05888	496.11996	733.43463	6.95605	505.85052	-14.22528	1308.23315	-961.81378	
6403	64.020	-800.68622	8.86411	-638.69629	769.34863	10.24105	-644.44312	-708.84479	8.04446	496.07190	733.48792	6.95674	505.84772	-14.31002	1308.26245	-961.80170	
6404	64.030	-800.67267	8.60235	-638.84296	769.30151	10.06298	-644.34412	-708.81616	7.96887	496.10034	733.41040	6.93731	505.88791	-14.39848	1308.19055	-961.67920	
6405	64.040	-800.58020	8.48915	-638.94049	769.26501	9.97911	-644.41766	-708.78320	7.98840	496.08884	733.34332	6.90948	505.91650	-14.30249	1308.15173	-961.62286	
6406	64.050	-800.53149	8.71901	-638.90625	769.31940	10.12142	-644.43317	-708.73151	7.94938	496.05676	733.36829	6.91790	505.91138	-14.20731	1308.13794	-961.68091	
6407	64.060	-800.56970	8.95871	-638.74127	769.30048	10.17498	-644.46033	-708.74188	8.01392	496.15622	733.08514	7.02006	506.01572	-14.17606	1308.22510	-961.70190	
6408	64.070	-800.63800	9.01587	-638.65283	769.35016	10.18908	-644.44397	-708.76697	8.05670	496.10654	733.42749	6.96780	505.84860	-14.18428	1308.30664	-961.83966	
6409	64.080	-800.70416	8.86177	-638.68439	769.34949	10.23010	-644.46057	-708.79041	8.01349	496.11279	733.47089	6.97164	505.87311	-14.22223	1308.33728	-961.89520	
6410	64.090	-800.65045	8.67861	-638.83966	769.29987	10.22018	-644.44482	-708.77411	7.96186	496.11282	733.35199	6.92079	505.86734	-14.26458	1308.27332	-961.83099	
6411	64.100	-800.56360	8.70271	-638.85443	769.33295	10.08297	-644.41492	-708.72705	7.90180	496.07037	733.01422	6.95850	506.07846	-14.25820	1308.17310	-961.74347	
6412	64.110	-800.57037	8.86166	-638.73956	769.28064	10.07400	-644.38068	-708.71844	7.92108	496.06851	733.35870	6.90030	505.92645	-14.19037	1308.12781	-961.68494	
6413	64.120	-800.64294	8.95836	-638.66858	769.35486	10.13444	-644.39032	-708.72253	8.00669	496.12021	733.37347	6.94286	505.86713	-14.09643	1308.08386	-961.63989	
6414	64.130	-800.70154	8.89335	-638.60431	769.36017	10.22532	-644.45551	-708.77533	8.03636	496.11179	733.47186	7.02390	505.83807	-14.10753	1308.16748	-961.70813	
6415	64.140	-800.69928	8.82964	-638.70007	769.35175	10.17890	-644.44659	-708.83594	8.08701	496.08957	733.44031	7.00453	505.85086	-14.21375	1308.20227	-961.80078	
6416	64.150	-800.61328	8.74090	-638.86169	769.37189	10.13791	-644.41681	-708.79944	8.03541	496.08118	733.35413	6.95417	505.88443	-14.16320	1308.17688	-961.95758	
6417	64.160	-800.58606	8.78247	-638.86334	769.32159	10.09413	-644.39508	-708.75500	7.96266	496.08069	733.31775	6.88441	505.91879	-14.17251	1308.10461	-961.95697	
6418	64.170	-800.59247	8.84483	-638.73572	769.33789	10.11223	-644.40448	-708.72015	7.95029	496.12561	733.33887	6.90508	505.91837	-14.11211	1308.09387	-961.99701	
6419	64.180	-800.66516	8.85295	-638.62610	769.35089	10.19966	-644.42999	-708.71320	7.99593	496.13629	733.48938	6.98191	505.83740	-14.18050	1308.22461	-962.03180	
6420	64.190	-800.69257	8.91927	-638.66443	769.35626	10.22307	-644.44000	-708.75372	7.95931	496.15088	733.50360	7.02874	505.85718	-14.26508	1308.35400	-962.04095	
